<svg xmlns="http://www.w3.org/2000/svg" viewBox="0 0 400 500" width="400" height="500">
<defs>
<linearGradient id="bg" x1="0" y1="0" x2="1" y2="1"><stop offset="0" stop-color="#fff0e9"/><stop offset="1" stop-color="#ffffff"/></linearGradient>
<filter id="sh" x="-30%" y="-30%" width="160%" height="160%"><feDropShadow dx="0" dy="14" stdDeviation="14" flood-color="#001f4d" flood-opacity=".28"/></filter>
<filter id="sh2" x="-30%" y="-30%" width="160%" height="160%"><feDropShadow dx="0" dy="6" stdDeviation="6" flood-color="#001f4d" flood-opacity=".22"/></filter>
<pattern id="dots" width="14" height="14" patternUnits="userSpaceOnUse"><circle cx="2" cy="2" r="1.6" fill="#ffffff" opacity=".18"/></pattern>
<pattern id="mesh" width="6" height="6" patternUnits="userSpaceOnUse"><circle cx="3" cy="3" r="1.1" fill="#000" opacity=".18"/></pattern>
</defs>
<rect width="400" height="500" fill="url(#bg)"/>
<rect width="400" height="500" fill="url(#dots)"/>

<ellipse cx="200" cy="410" rx="100" ry="10" fill="#001f4d" opacity=".12"/>
<g filter="url(#sh)"><path d="M132 150 L268 150 L322 196 L310 360 L282 356 L276 394 Q200 406 124 394 L118 356 L90 360 L78 196 Z" fill="#001f4d"/></g>
<path d="M146 152 Q200 66 254 152 Q200 182 146 152 Z" fill="#00337a"/><path d="M164 150 Q200 108 236 150 Q200 166 164 150 Z" fill="#00153a"/>
<line x1="186" y1="166" x2="182" y2="226" stroke="#ffffff" stroke-width="4" stroke-linecap="round"/><line x1="214" y1="166" x2="218" y2="226" stroke="#ffffff" stroke-width="4" stroke-linecap="round"/>
<path d="M150 300 L250 300 L262 352 L138 352 Z" fill="#00337a"/>
<g transform="translate(172 220) scale(0.56)"><rect width="100" height="100" rx="24" fill="#001f4d"/><rect x="20" y="24" width="60" height="20" rx="10" fill="#f15a25"/><circle cx="70" cy="34" r="6" fill="#ffffff"/><rect x="20" y="56" width="60" height="20" rx="10" fill="#ffffff"/></g>
<rect x="118" y="350" width="164" height="10" fill="#00337a"/>
</svg>
